{"accessors":[{"bufferView":0,"byteOffset":0,"componentType":5126,"count":166,"max":[0.0425,5.149041504767945e-18,0.0],"min":[-0.0425,-0.0425,-0.033999999999999996],"type":"VEC3"},{"bufferView":0,"byteOffset":1992,"componentType":5126,"count":29,"max":[0.0425,0.0425,-0.033999999999999996],"min":[0.0,-0.0425,-0.234],"type":"VEC3"},{"bufferView":0,"byteOffset":2340,"componentType":5126,"count":29,"max":[5e-18,0.0425,-0.033999999999999996],"min":[-0.0425,-0.0425,-0.234],"type":"VEC3"},{"bufferView":0,"byteOffset":2688,"componentType":5126,"count":26,"max":[0.0421901271491673,0.0425,-0.234],"min":[-0.042190127149167304,-0.0425,-0.234],"type":"VEC3"},{"bufferView":0,"byteOffset":3000,"componentType":5126,"count":164,"max":[0.0425,0.0425,0.0],"min":[-0.0425,0.0,-0.033999999999999996],"type":"VEC3"},{"bufferView":0,"byteOffset":4968,"componentType":5126,"count":28,"max":[0.0029975669945147138,-0.020009728075597373,-0.234],"min":[-0.00259807621135331,-0.0245,-0.249],"type":"VEC3"},{"bufferView":0,"byteOffset":5304,"componentType":5126,"count":28,"max":[0.0029975669945147138,-0.020009728075597373,-0.049],"min":[-0.00259807621135331,-0.0245,-0.234],"type":"VEC3"},{"bufferView":0,"byteOffset":5640,"componentType":5126,"count":28,"max":[0.002598076211353322,-0.021500000000000002,-0.049],"min":[-0.002997566994514703,-0.025990271924402637,-0.234],"type":"VEC3"},{"bufferView":0,"byteOffset":5976,"componentType":5126,"count":28,"max":[0.002598076211353322,-0.021500000000000002,-0.234],"min":[-0.002997566994514703,-0.025990271924402637,-0.249],"type":"VEC3"},{"bufferView":0,"byteOffset":6312,"componentType":5126,"count":26,"max":[0.0029975669945147138,-0.020009728075597373,-0.249],"min":[-0.002997566994514703,-0.02599027192440263,-0.249],"type":"VEC3"},{"bufferView":0,"byteOffset":6624,"componentType":5126,"count":26,"max":[0.0029975669945147138,-0.020009728075597373,-0.049],"min":[-0.002997566994514703,-0.02599027192440263,-0.049],"type":"VEC3"},{"bufferView":0,"byteOffset":6936,"componentType":5126,"count":28,"max":[-0.01694045766474793,-0.008500000000000004,-0.234],"min":[-0.01991858428704209,-0.014500000000000006,-0.249],"type":"VEC3"},{"bufferView":0,"byteOffset":7272,"componentType":5126,"count":28,"max":[-0.01694045766474793,-0.008500000000000004,-0.049],"min":[-0.01991858428704209,-0.014500000000000006,-0.234],"type":"VEC3"},{"bufferView":0,"byteOffset":7608,"componentType":5126,"count":28,"max":[-0.01991858428704209,-0.008500000000000004,-0.049],"min":[-0.022896710909336253,-0.014500000000000006,-0.234],"type":"VEC3"},{"bufferView":0,"byteOffset":7944,"componentType":5126,"count":28,"max":[-0.01991858428704209,-0.008500000000000004,-0.234],"min":[-0.022896710909336253,-0.014500000000000006,-0.249],"type":"VEC3"},{"bufferView":0,"byteOffset":8280,"componentType":5126,"count":26,"max":[-0.01694045766474793,-0.008500000000000004,-0.249],"min":[-0.022896710909336253,-0.014500000000000006,-0.249],"type":"VEC3"},{"bufferView":0,"byteOffset":8592,"componentType":5126,"count":26,"max":[-0.01694045766474793,-0.008500000000000004,-0.049],"min":[-0.022896710909336253,-0.014500000000000006,-0.049],"type":"VEC3"},{"bufferView":0,"byteOffset":8904,"componentType":5126,"count":28,"max":[0.0049635443704902716,0.005,-0.021540000000000004],"min":[0.0,-0.005,-0.03245999999999999],"type":"VEC3"},{"bufferView":0,"byteOffset":9240,"componentType":5126,"count":28,"max":[0.0049635443704902716,0.005,-0.23500000000000004],"min":[0.0,-0.005,-0.32],"type":"VEC3"},{"bufferView":0,"byteOffset":9576,"componentType":5126,"count":8,"max":[0.0,-0.01552576698849831,-0.02],"min":[-0.008074686335632877,-0.0175,-0.02154],"type":"VEC3"},{"bufferView":0,"byteOffset":9672,"componentType":5126,"count":8,"max":[0.0,0.0175,-0.03246],"min":[-0.008074686335632885,0.015525766988498302,-0.034],"type":"VEC3"},{"bufferView":0,"byteOffset":9768,"componentType":5126,"count":28,"max":[0.0049635443704902716,0.005,-0.033999999999999975],"min":[0.0,-0.005,-0.23500000000000004],"type":"VEC3"},{"bufferView":0,"byteOffset":10104,"componentType":5126,"count":28,"max":[1e-18,0.005,-0.033999999999999975],"min":[-0.004963544370490271,-0.005,-0.23500000000000004],"type":"VEC3"},{"bufferView":0,"byteOffset":10440,"componentType":5126,"count":4,"max":[0.005666839560914012,0.009045254037844392,-0.02154],"min":[0.004333160439085975,0.00827525403784439,-0.03246],"type":"VEC3"},{"bufferView":0,"byteOffset":10488,"componentType":5126,"count":70,"max":[0.017483051793093795,0.0175,-0.033999999999999975],"min":[-0.017498116595645236,-0.0175,-0.034],"type":"VEC3"},{"bufferView":0,"byteOffset":11328,"componentType":5126,"count":44,"max":[0.017483051793093795,0.0175,-0.02],"min":[-0.017498116595645236,-0.0175,-0.02],"type":"VEC3"},{"bufferView":0,"byteOffset":11856,"componentType":5126,"count":8,"max":[0.01433316043908596,0.02636576211353317,-0.02],"min":[0.004333160439085975,0.009045254037844392,-0.034],"type":"VEC3"},{"bufferView":0,"byteOffset":11952,"componentType":5126,"count":8,"max":[0.015666839560913998,0.02559576211353317,-0.02],"min":[0.005666839560914012,0.00827525403784439,-0.034],"type":"VEC3"},{"bufferView":0,"byteOffset":12048,"componentType":5126,"count":6,"max":[0.015666839560913998,0.02636576211353317,-0.034],"min":[0.008074686335632868,0.014755766988498314,-0.034],"type":"VEC3"},{"bufferView":0,"byteOffset":12120,"componentType":5126,"count":4,"max":[0.015666839560913998,0.02636576211353317,-0.020000000000000004],"min":[0.01433316043908596,0.02559576211353317,-0.034],"type":"VEC3"},{"bufferView":0,"byteOffset":12168,"componentType":5126,"count":6,"max":[0.015666839560913998,0.02636576211353317,-0.02],"min":[0.008074686335632868,0.014755766988498314,-0.020000000000000004],"type":"VEC3"},{"bufferView":0,"byteOffset":12240,"componentType":5126,"count":70,"max":[0.017483051793093795,0.0175,-0.03245999999999999],"min":[-0.0174830517930938,-0.0175,-0.03246],"type":"VEC3"},{"bufferView":0,"byteOffset":13080,"componentType":5126,"count":8,"max":[0.008074686335632868,0.0175,-0.03246],"min":[0.0,0.015525766988498313,-0.034],"type":"VEC3"},{"bufferView":0,"byteOffset":13176,"componentType":5126,"count":70,"max":[0.017483051793093795,0.0175,-0.02154],"min":[-0.0174830517930938,-0.0175,-0.021540000000000004],"type":"VEC3"},{"bufferView":0,"byteOffset":14016,"componentType":5126,"count":10,"max":[0.008074686335632868,0.0175,-0.02],"min":[-0.008074686335632885,0.015525766988498302,-0.02154],"type":"VEC3"},{"bufferView":0,"byteOffset":14136,"componentType":5126,"count":4,"max":[-0.004333160439085986,0.009045254037844385,-0.02154],"min":[-0.005666839560914022,0.008275254037844387,-0.03246],"type":"VEC3"},{"bufferView":0,"byteOffset":14184,"componentType":5126,"count":8,"max":[-0.005666839560914022,0.025595762113533153,-0.02],"min":[-0.015666839560914032,0.008275254037844387,-0.034],"type":"VEC3"},{"bufferView":0,"byteOffset":14280,"componentType":5126,"count":8,"max":[-0.004333160439085986,0.026365762113533153,-0.02],"min":[-0.014333160439085996,0.009045254037844385,-0.034],"type":"VEC3"},{"bufferView":0,"byteOffset":14376,"componentType":5126,"count":6,"max":[-0.008074686335632885,0.026365762113533153,-0.034],"min":[-0.015666839560914032,0.014755766988498304,-0.034],"type":"VEC3"},{"bufferView":0,"byteOffset":14448,"componentType":5126,"count":4,"max":[-0.014333160439085996,0.026365762113533153,-0.020000000000000004],"min":[-0.015666839560914032,0.025595762113533153,-0.034],"type":"VEC3"},{"bufferView":0,"byteOffset":14496,"componentType":5126,"count":6,"max":[-0.008074686335632885,0.026365762113533153,-0.02],"min":[-0.015666839560914032,0.014755766988498304,-0.020000000000000004],"type":"VEC3"},{"bufferView":0,"byteOffset":14568,"componentType":5126,"count":10,"max":[-0.00940836545746092,0.014755766988498304,-0.03246],"min":[-0.0174830517930938,0.000769999999999998,-0.034],"type":"VEC3"},{"bufferView":0,"byteOffset":14688,"componentType":5126,"count":10,"max":[-0.00940836545746092,0.014755766988498304,-0.02],"min":[-0.0174830517930938,0.000769999999999998,-0.02154],"type":"VEC3"},{"bufferView":0,"byteOffset":14808,"componentType":5126,"count":4,"max":[-0.01,0.000769999999999999,-0.02154],"min":[-0.01,-0.000770000000000001,-0.03246],"type":"VEC3"},{"bufferView":0,"byteOffset":14856,"componentType":5126,"count":8,"max":[-0.01,-0.000770000000000001,-0.02],"min":[-0.03,-0.0007700000000000041,-0.034],"type":"VEC3"},{"bufferView":0,"byteOffset":14952,"componentType":5126,"count":8,"max":[-0.01,0.000769999999999999,-0.02],"min":[-0.03,0.0007699999999999961,-0.034],"type":"VEC3"},{"bufferView":0,"byteOffset":15048,"componentType":5126,"count":6,"max":[-0.017483051793093795,0.000769999999999998,-0.034],"min":[-0.03,-0.0007700000000000041,-0.034],"type":"VEC3"},{"bufferView":0,"byteOffset":15120,"componentType":5126,"count":4,"max":[-0.03,0.0007699999999999961,-0.020000000000000004],"min":[-0.03,-0.0007700000000000041,-0.034],"type":"VEC3"},{"bufferView":0,"byteOffset":15168,"componentType":5126,"count":6,"max":[-0.0174830517930938,0.000769999999999998,-0.02],"min":[-0.03,-0.0007700000000000041,-0.020000000000000004],"type":"VEC3"},{"bufferView":0,"byteOffset":15240,"componentType":5126,"count":10,"max":[-0.009408365457460911,-0.000770000000000002,-0.03246],"min":[-0.0174830517930938,-0.01475576698849831,-0.034],"type":"VEC3"},{"bufferView":0,"byteOffset":15360,"componentType":5126,"count":10,"max":[-0.00940836545746091,-0.000770000000000002,-0.02],"min":[-0.0174830517930938,-0.01475576698849831,-0.02154],"type":"VEC3"},{"bufferView":0,"byteOffset":15480,"componentType":5126,"count":4,"max":[-0.0043331604390859785,-0.008275254037844387,-0.02154],"min":[-0.0056668395609140165,-0.009045254037844386,-0.03246],"type":"VEC3"},{"bufferView":0,"byteOffset":15528,"componentType":5126,"count":8,"max":[-0.0043331604390859785,-0.009045254037844386,-0.02],"min":[-0.014333160439085977,-0.02636576211353316,-0.034],"type":"VEC3"},{"bufferView":0,"byteOffset":15624,"componentType":5126,"count":8,"max":[-0.0056668395609140165,-0.008275254037844387,-0.02],"min":[-0.01566683956091401,-0.02559576211353316,-0.034],"type":"VEC3"},{"bufferView":0,"byteOffset":15720,"componentType":5126,"count":6,"max":[-0.008074686335632875,-0.01475576698849831,-0.034],"min":[-0.01566683956091401,-0.02636576211353316,-0.034],"type":"VEC3"},{"bufferView":0,"byteOffset":15792,"componentType":5126,"count":4,"max":[-0.014333160439085977,-0.02559576211353316,-0.020000000000000004],"min":[-0.01566683956091401,-0.02636576211353316,-0.034],"type":"VEC3"},{"bufferView":0,"byteOffset":15840,"componentType":5126,"count":6,"max":[-0.008074686335632877,-0.01475576698849831,-0.02],"min":[-0.01566683956091401,-0.02636576211353316,-0.020000000000000004],"type":"VEC3"},{"bufferView":0,"byteOffset":15912,"componentType":5126,"count":10,"max":[0.00807468633563288,-0.015525766988498306,-0.03246],"min":[-0.008074686335632877,-0.0175,-0.034],"type":"VEC3"},{"bufferView":0,"byteOffset":16032,"componentType":5126,"count":8,"max":[0.00807468633563288,-0.015525766988498306,-0.02],"min":[0.0,-0.0175,-0.02154],"type":"VEC3"},{"bufferView":0,"byteOffset":16128,"componentType":5126,"count":4,"max":[0.005666839560914019,-0.008275254037844387,-0.02154],"min":[0.004333160439085983,-0.009045254037844386,-0.03246],"type":"VEC3"},{"bufferView":0,"byteOffset":16176,"componentType":5126,"count":8,"max":[0.015666839560914022,-0.008275254037844387,-0.02],"min":[0.005666839560914019,-0.025595762113533156,-0.034],"type":"VEC3"},{"bufferView":0,"byteOffset":16272,"componentType":5126,"count":8,"max":[0.014333160439085986,-0.009045254037844386,-0.02],"min":[0.004333160439085983,-0.026365762113533156,-0.034],"type":"VEC3"},{"bufferView":0,"byteOffset":16368,"componentType":5126,"count":6,"max":[0.015666839560914022,-0.014755766988498306,-0.034],"min":[0.00807468633563288,-0.026365762113533156,-0.034],"type":"VEC3"},{"bufferView":0,"byteOffset":16440,"componentType":5126,"count":4,"max":[0.015666839560914022,-0.025595762113533156,-0.020000000000000004],"min":[0.014333160439085986,-0.026365762113533156,-0.034],"type":"VEC3"},{"bufferView":0,"byteOffset":16488,"componentType":5126,"count":6,"max":[0.015666839560914022,-0.014755766988498306,-0.02],"min":[0.00807468633563288,-0.026365762113533156,-0.020000000000000004],"type":"VEC3"},{"bufferView":0,"byteOffset":16560,"componentType":5126,"count":10,"max":[0.017483051793093795,-0.0007700000000000001,-0.03246],"min":[0.009408365457460915,-0.014755766988498306,-0.034],"type":"VEC3"},{"bufferView":0,"byteOffset":16680,"componentType":5126,"count":10,"max":[0.017483051793093795,-0.0007700000000000001,-0.02],"min":[0.009408365457460915,-0.014755766988498306,-0.02154],"type":"VEC3"},{"bufferView":0,"byteOffset":16800,"componentType":5126,"count":4,"max":[0.01,0.0007700000000000001,-0.02154],"min":[0.01,-0.0007700000000000001,-0.03246],"type":"VEC3"},{"bufferView":0,"byteOffset":16848,"componentType":5126,"count":6,"max":[0.017498116595645236,0.0007700000000000001,-0.034],"min":[0.01,-0.0007700000000000001,-0.034],"type":"VEC3"},{"bufferView":0,"byteOffset":16920,"componentType":5126,"count":6,"max":[0.017498116595645236,0.0007700000000000001,-0.02],"min":[0.01,-0.0007700000000000001,-0.02],"type":"VEC3"},{"bufferView":0,"byteOffset":16992,"componentType":5126,"count":8,"max":[0.03,0.0007700000000000001,-0.02],"min":[0.01,0.0007700000000000001,-0.034],"type":"VEC3"},{"bufferView":0,"byteOffset":17088,"componentType":5126,"count":8,"max":[0.03,-0.0007700000000000001,-0.02],"min":[0.01,-0.0007700000000000001,-0.034],"type":"VEC3"},{"bufferView":0,"byteOffset":17184,"componentType":5126,"count":6,"max":[0.03,0.0007700000000000001,-0.034],"min":[0.017483051793093795,-0.0007700000000000001,-0.034],"type":"VEC3"},{"bufferView":0,"byteOffset":17256,"componentType":5126,"count":4,"max":[0.03,0.0007700000000000001,-0.020000000000000004],"min":[0.03,-0.0007700000000000001,-0.034],"type":"VEC3"},{"bufferView":0,"byteOffset":17304,"componentType":5126,"count":6,"max":[0.03,0.0007700000000000001,-0.02],"min":[0.017483051793093795,-0.0007700000000000001,-0.020000000000000004],"type":"VEC3"},{"bufferView":0,"byteOffset":17376,"componentType":5126,"count":10,"max":[0.017483051793093795,0.014755766988498314,-0.03246],"min":[0.009408365457460903,0.0007700000000000001,-0.034],"type":"VEC3"},{"bufferView":0,"byteOffset":17496,"componentType":5126,"count":10,"max":[0.017483051793093795,0.014755766988498314,-0.02],"min":[0.009408365457460901,0.0007700000000000001,-0.02154],"type":"VEC3"},{"bufferView":0,"byteOffset":17616,"componentType":5126,"count":26,"max":[0.004963544370490271,0.005,-0.32],"min":[-0.0049635443704902716,-0.005,-0.32],"type":"VEC3"},{"bufferView":0,"byteOffset":17928,"componentType":5126,"count":28,"max":[1e-18,0.005,-0.23500000000000004],"min":[-0.0049635443704902716,-0.005,-0.32],"type":"VEC3"},{"bufferView":0,"byteOffset":18264,"componentType":5126,"count":28,"max":[1e-18,0.005,-0.021540000000000004],"min":[-0.004963544370490271,-0.005,-0.03245999999999999],"type":"VEC3"},{"bufferView":0,"byteOffset":18600,"componentType":5126,"count":28,"max":[0.002954423259036624,0.017995675111692425,-0.234],"min":[-0.0029932432755468753,0.014479055466999208,-0.264],"type":"VEC3"},{"bufferView":0,"byteOffset":18936,"componentType":5126,"count":31,"max":[0.002954423259036624,0.01799699705300619,-0.064],"min":[-0.002999996691737987,0.014479055466999208,-0.234],"type":"VEC3"},{"bufferView":0,"byteOffset":19308,"componentType":5126,"count":31,"max":[0.002993540294427152,0.015520944533000791,-0.064],"min":[-0.002954423259036624,0.012004324888307575,-0.234],"type":"VEC3"},{"bufferView":0,"byteOffset":19680,"componentType":5126,"count":5,"max":[-0.002989159134206505,0.01525480908616026,-0.064],"min":[-0.033617172699218614,0.009854263929143754,-0.12],"type":"VEC3"},{"bufferView":0,"byteOffset":19740,"componentType":5126,"count":5,"max":[-0.0027217409405994324,0.013738205146521461,-0.064],"min":[-0.033349754505611534,0.008337659989504954,-0.12],"type":"VEC3"},{"bufferView":0,"byteOffset":19800,"componentType":5126,"count":4,"max":[-0.033349754505611534,0.009854263929143754,-0.064],"min":[-0.033617172699218614,0.008337659989504954,-0.12],"type":"VEC3"},{"bufferView":0,"byteOffset":19848,"componentType":5126,"count":9,"max":[-0.0027217409405994324,0.01525480908616026,-0.12],"min":[-0.033617172699218614,0.008337659989504954,-0.12],"type":"VEC3"},{"bufferView":0,"byteOffset":19956,"componentType":5126,"count":27,"max":[0.002993540294427152,0.01799699705300619,-0.064],"min":[-0.00308813235584016,0.01200617079186547,-0.064],"type":"VEC3"},{"bufferView":0,"byteOffset":20280,"componentType":5126,"count":4,"max":[-0.002820714162233087,0.015237357436818609,-0.064],"min":[-0.033617172699218614,0.008337659989504954,-0.064],"type":"VEC3"},{"bufferView":0,"byteOffset":20328,"componentType":5126,"count":28,"max":[0.0029932432755468757,0.015520944533000791,-0.234],"min":[-0.002954423259036624,0.012004324888307575,-0.264],"type":"VEC3"},{"bufferView":0,"byteOffset":20664,"componentType":5126,"count":26,"max":[0.0029932432755468757,0.017995675111692425,-0.264],"min":[-0.0029932432755468753,0.012004324888307575,-0.264],"type":"VEC3"},{"bufferView":1,"byteOffset":0,"componentType":5126,"count":166,"type":"VEC3"},{"bufferView":1,"byteOffset":1992,"componentType":5126,"count":29,"type":"VEC3"},{"bufferView":1,"byteOffset":2340,"componentType":5126,"count":29,"type":"VEC3"},{"bufferView":1,"byteOffset":2688,"componentType":5126,"count":26,"type":"VEC3"},{"bufferView":1,"byteOffset":3000,"componentType":5126,"count":164,"type":"VEC3"},{"bufferView":1,"byteOffset":4968,"componentType":5126,"count":28,"type":"VEC3"},{"bufferView":1,"byteOffset":5304,"componentType":5126,"count":28,"type":"VEC3"},{"bufferView":1,"byteOffset":5640,"componentType":5126,"count":28,"type":"VEC3"},{"bufferView":1,"byteOffset":5976,"componentType":5126,"count":28,"type":"VEC3"},{"bufferView":1,"byteOffset":6312,"componentType":5126,"count":26,"type":"VEC3"},{"bufferView":1,"byteOffset":6624,"componentType":5126,"count":26,"type":"VEC3"},{"bufferView":1,"byteOffset":6936,"componentType":5126,"count":28,"type":"VEC3"},{"bufferView":1,"byteOffset":7272,"componentType":5126,"count":28,"type":"VEC3"},{"bufferView":1,"byteOffset":7608,"componentType":5126,"count":28,"type":"VEC3"},{"bufferView":1,"byteOffset":7944,"componentType":5126,"count":28,"type":"VEC3"},{"bufferView":1,"byteOffset":8280,"componentType":5126,"count":26,"type":"VEC3"},{"bufferView":1,"byteOffset":8592,"componentType":5126,"count":26,"type":"VEC3"},{"bufferView":1,"byteOffset":8904,"componentType":5126,"count":28,"type":"VEC3"},{"bufferView":1,"byteOffset":9240,"componentType":5126,"count":28,"type":"VEC3"},{"bufferView":1,"byteOffset":9576,"componentType":5126,"count":8,"type":"VEC3"},{"bufferView":1,"byteOffset":9672,"componentType":5126,"count":8,"type":"VEC3"},{"bufferView":1,"byteOffset":9768,"componentType":5126,"count":28,"type":"VEC3"},{"bufferView":1,"byteOffset":10104,"componentType":5126,"count":28,"type":"VEC3"},{"bufferView":1,"byteOffset":10440,"componentType":5126,"count":4,"type":"VEC3"},{"bufferView":1,"byteOffset":10488,"componentType":5126,"count":70,"type":"VEC3"},{"bufferView":1,"byteOffset":11328,"componentType":5126,"count":44,"type":"VEC3"},{"bufferView":1,"byteOffset":11856,"componentType":5126,"count":8,"type":"VEC3"},{"bufferView":1,"byteOffset":11952,"componentType":5126,"count":8,"type":"VEC3"},{"bufferView":1,"byteOffset":12048,"componentType":5126,"count":6,"type":"VEC3"},{"bufferView":1,"byteOffset":12120,"componentType":5126,"count":4,"type":"VEC3"},{"bufferView":1,"byteOffset":12168,"componentType":5126,"count":6,"type":"VEC3"},{"bufferView":1,"byteOffset":12240,"componentType":5126,"count":70,"type":"VEC3"},{"bufferView":1,"byteOffset":13080,"componentType":5126,"count":8,"type":"VEC3"},{"bufferView":1,"byteOffset":13176,"componentType":5126,"count":70,"type":"VEC3"},{"bufferView":1,"byteOffset":14016,"componentType":5126,"count":10,"type":"VEC3"},{"bufferView":1,"byteOffset":14136,"componentType":5126,"count":4,"type":"VEC3"},{"bufferView":1,"byteOffset":14184,"componentType":5126,"count":8,"type":"VEC3"},{"bufferView":1,"byteOffset":14280,"componentType":5126,"count":8,"type":"VEC3"},{"bufferView":1,"byteOffset":14376,"componentType":5126,"count":6,"type":"VEC3"},{"bufferView":1,"byteOffset":14448,"componentType":5126,"count":4,"type":"VEC3"},{"bufferView":1,"byteOffset":14496,"componentType":5126,"count":6,"type":"VEC3"},{"bufferView":1,"byteOffset":14568,"componentType":5126,"count":10,"type":"VEC3"},{"bufferView":1,"byteOffset":14688,"componentType":5126,"count":10,"type":"VEC3"},{"bufferView":1,"byteOffset":14808,"componentType":5126,"count":4,"type":"VEC3"},{"bufferView":1,"byteOffset":14856,"componentType":5126,"count":8,"type":"VEC3"},{"bufferView":1,"byteOffset":14952,"componentType":5126,"count":8,"type":"VEC3"},{"bufferView":1,"byteOffset":15048,"componentType":5126,"count":6,"type":"VEC3"},{"bufferView":1,"byteOffset":15120,"componentType":5126,"count":4,"type":"VEC3"},{"bufferView":1,"byteOffset":15168,"componentType":5126,"count":6,"type":"VEC3"},{"bufferView":1,"byteOffset":15240,"componentType":5126,"count":10,"type":"VEC3"},{"bufferView":1,"byteOffset":15360,"componentType":5126,"count":10,"type":"VEC3"},{"bufferView":1,"byteOffset":15480,"componentType":5126,"count":4,"type":"VEC3"},{"bufferView":1,"byteOffset":15528,"componentType":5126,"count":8,"type":"VEC3"},{"bufferView":1,"byteOffset":15624,"componentType":5126,"count":8,"type":"VEC3"},{"bufferView":1,"byteOffset":15720,"componentType":5126,"count":6,"type":"VEC3"},{"bufferView":1,"byteOffset":15792,"componentType":5126,"count":4,"type":"VEC3"},{"bufferView":1,"byteOffset":15840,"componentType":5126,"count":6,"type":"VEC3"},{"bufferView":1,"byteOffset":15912,"componentType":5126,"count":10,"type":"VEC3"},{"bufferView":1,"byteOffset":16032,"componentType":5126,"count":8,"type":"VEC3"},{"bufferView":1,"byteOffset":16128,"componentType":5126,"count":4,"type":"VEC3"},{"bufferView":1,"byteOffset":16176,"componentType":5126,"count":8,"type":"VEC3"},{"bufferView":1,"byteOffset":16272,"componentType":5126,"count":8,"type":"VEC3"},{"bufferView":1,"byteOffset":16368,"componentType":5126,"count":6,"type":"VEC3"},{"bufferView":1,"byteOffset":16440,"componentType":5126,"count":4,"type":"VEC3"},{"bufferView":1,"byteOffset":16488,"componentType":5126,"count":6,"type":"VEC3"},{"bufferView":1,"byteOffset":16560,"componentType":5126,"count":10,"type":"VEC3"},{"bufferView":1,"byteOffset":16680,"componentType":5126,"count":10,"type":"VEC3"},{"bufferView":1,"byteOffset":16800,"componentType":5126,"count":4,"type":"VEC3"},{"bufferView":1,"byteOffset":16848,"componentType":5126,"count":6,"type":"VEC3"},{"bufferView":1,"byteOffset":16920,"componentType":5126,"count":6,"type":"VEC3"},{"bufferView":1,"byteOffset":16992,"componentType":5126,"count":8,"type":"VEC3"},{"bufferView":1,"byteOffset":17088,"componentType":5126,"count":8,"type":"VEC3"},{"bufferView":1,"byteOffset":17184,"componentType":5126,"count":6,"type":"VEC3"},{"bufferView":1,"byteOffset":17256,"componentType":5126,"count":4,"type":"VEC3"},{"bufferView":1,"byteOffset":17304,"componentType":5126,"count":6,"type":"VEC3"},{"bufferView":1,"byteOffset":17376,"componentType":5126,"count":10,"type":"VEC3"},{"bufferView":1,"byteOffset":17496,"componentType":5126,"count":10,"type":"VEC3"},{"bufferView":1,"byteOffset":17616,"componentType":5126,"count":26,"type":"VEC3"},{"bufferView":1,"byteOffset":17928,"componentType":5126,"count":28,"type":"VEC3"},{"bufferView":1,"byteOffset":18264,"componentType":5126,"count":28,"type":"VEC3"},{"bufferView":1,"byteOffset":18600,"componentType":5126,"count":28,"type":"VEC3"},{"bufferView":1,"byteOffset":18936,"componentType":5126,"count":31,"type":"VEC3"},{"bufferView":1,"byteOffset":19308,"componentType":5126,"count":31,"type":"VEC3"},{"bufferView":1,"byteOffset":19680,"componentType":5126,"count":5,"type":"VEC3"},{"bufferView":1,"byteOffset":19740,"componentType":5126,"count":5,"type":"VEC3"},{"bufferView":1,"byteOffset":19800,"componentType":5126,"count":4,"type":"VEC3"},{"bufferView":1,"byteOffset":19848,"componentType":5126,"count":9,"type":"VEC3"},{"bufferView":1,"byteOffset":19956,"componentType":5126,"count":27,"type":"VEC3"},{"bufferView":1,"byteOffset":20280,"componentType":5126,"count":4,"type":"VEC3"},{"bufferView":1,"byteOffset":20328,"componentType":5126,"count":28,"type":"VEC3"},{"bufferView":1,"byteOffset":20664,"componentType":5126,"count":26,"type":"VEC3"},{"bufferView":2,"byteOffset":0,"componentType":5123,"count":903,"type":"SCALAR"},{"bufferView":2,"byteOffset":1808,"componentType":5123,"count":81,"type":"SCALAR"},{"bufferView":2,"byteOffset":1972,"componentType":5123,"count":81,"type":"SCALAR"},{"bufferView":2,"byteOffset":2136,"componentType":5123,"count":72,"type":"SCALAR"},{"bufferView":2,"byteOffset":2280,"componentType":5123,"count":891,"type":"SCALAR"},{"bufferView":2,"byteOffset":4064,"componentType":5123,"count":78,"type":"SCALAR"},{"bufferView":2,"byteOffset":4220,"componentType":5123,"count":78,"type":"SCALAR"},{"bufferView":2,"byteOffset":4376,"componentType":5123,"count":78,"type":"SCALAR"},{"bufferView":2,"byteOffset":4532,"componentType":5123,"count":78,"type":"SCALAR"},{"bufferView":2,"byteOffset":4688,"componentType":5123,"count":72,"type":"SCALAR"},{"bufferView":2,"byteOffset":4832,"componentType":5123,"count":72,"type":"SCALAR"},{"bufferView":2,"byteOffset":4976,"componentType":5123,"count":78,"type":"SCALAR"},{"bufferView":2,"byteOffset":5132,"componentType":5123,"count":78,"type":"SCALAR"},{"bufferView":2,"byteOffset":5288,"componentType":5123,"count":78,"type":"SCALAR"},{"bufferView":2,"byteOffset":5444,"componentType":5123,"count":78,"type":"SCALAR"},{"bufferView":2,"byteOffset":5600,"componentType":5123,"count":72,"type":"SCALAR"},{"bufferView":2,"byteOffset":5744,"componentType":5123,"count":72,"type":"SCALAR"},{"bufferView":2,"byteOffset":5888,"componentType":5123,"count":78,"type":"SCALAR"},{"bufferView":2,"byteOffset":6044,"componentType":5123,"count":78,"type":"SCALAR"},{"bufferView":2,"byteOffset":6200,"componentType":5123,"count":18,"type":"SCALAR"},{"bufferView":2,"byteOffset":6236,"componentType":5123,"count":18,"type":"SCALAR"},{"bufferView":2,"byteOffset":6272,"componentType":5123,"count":78,"type":"SCALAR"},{"bufferView":2,"byteOffset":6428,"componentType":5123,"count":78,"type":"SCALAR"},{"bufferView":2,"byteOffset":6584,"componentType":5123,"count":6,"type":"SCALAR"},{"bufferView":2,"byteOffset":6596,"componentType":5123,"count":210,"type":"SCALAR"},{"bufferView":2,"byteOffset":7016,"componentType":5123,"count":126,"type":"SCALAR"},{"bufferView":2,"byteOffset":7268,"componentType":5123,"count":18,"type":"SCALAR"},{"bufferView":2,"byteOffset":7304,"componentType":5123,"count":18,"type":"SCALAR"},{"bufferView":2,"byteOffset":7340,"componentType":5123,"count":12,"type":"SCALAR"},{"bufferView":2,"byteOffset":7364,"componentType":5123,"count":6,"type":"SCALAR"},{"bufferView":2,"byteOffset":7376,"componentType":5123,"count":12,"type":"SCALAR"},{"bufferView":2,"byteOffset":7400,"componentType":5123,"count":210,"type":"SCALAR"},{"bufferView":2,"byteOffset":7820,"componentType":5123,"count":18,"type":"SCALAR"},{"bufferView":2,"byteOffset":7856,"componentType":5123,"count":210,"type":"SCALAR"},{"bufferView":2,"byteOffset":8276,"componentType":5123,"count":24,"type":"SCALAR"},{"bufferView":2,"byteOffset":8324,"componentType":5123,"count":6,"type":"SCALAR"},{"bufferView":2,"byteOffset":8336,"componentType":5123,"count":18,"type":"SCALAR"},{"bufferView":2,"byteOffset":8372,"componentType":5123,"count":18,"type":"SCALAR"},{"bufferView":2,"byteOffset":8408,"componentType":5123,"count":12,"type":"SCALAR"},{"bufferView":2,"byteOffset":8432,"componentType":5123,"count":6,"type":"SCALAR"},{"bufferView":2,"byteOffset":8444,"componentType":5123,"count":12,"type":"SCALAR"},{"bufferView":2,"byteOffset":8468,"componentType":5123,"count":24,"type":"SCALAR"},{"bufferView":2,"byteOffset":8516,"componentType":5123,"count":24,"type":"SCALAR"},{"bufferView":2,"byteOffset":8564,"componentType":5123,"count":6,"type":"SCALAR"},{"bufferView":2,"byteOffset":8576,"componentType":5123,"count":18,"type":"SCALAR"},{"bufferView":2,"byteOffset":8612,"componentType":5123,"count":18,"type":"SCALAR"},{"bufferView":2,"byteOffset":8648,"componentType":5123,"count":12,"type":"SCALAR"},{"bufferView":2,"byteOffset":8672,"componentType":5123,"count":6,"type":"SCALAR"},{"bufferView":2,"byteOffset":8684,"componentType":5123,"count":12,"type":"SCALAR"},{"bufferView":2,"byteOffset":8708,"componentType":5123,"count":24,"type":"SCALAR"},{"bufferView":2,"byteOffset":8756,"componentType":5123,"count":24,"type":"SCALAR"},{"bufferView":2,"byteOffset":8804,"componentType":5123,"count":6,"type":"SCALAR"},{"bufferView":2,"byteOffset":8816,"componentType":5123,"count":18,"type":"SCALAR"},{"bufferView":2,"byteOffset":8852,"componentType":5123,"count":18,"type":"SCALAR"},{"bufferView":2,"byteOffset":8888,"componentType":5123,"count":12,"type":"SCALAR"},{"bufferView":2,"byteOffset":8912,"componentType":5123,"count":6,"type":"SCALAR"},{"bufferView":2,"byteOffset":8924,"componentType":5123,"count":12,"type":"SCALAR"},{"bufferView":2,"byteOffset":8948,"componentType":5123,"count":24,"type":"SCALAR"},{"bufferView":2,"byteOffset":8996,"componentType":5123,"count":18,"type":"SCALAR"},{"bufferView":2,"byteOffset":9032,"componentType":5123,"count":6,"type":"SCALAR"},{"bufferView":2,"byteOffset":9044,"componentType":5123,"count":18,"type":"SCALAR"},{"bufferView":2,"byteOffset":9080,"componentType":5123,"count":18,"type":"SCALAR"},{"bufferView":2,"byteOffset":9116,"componentType":5123,"count":12,"type":"SCALAR"},{"bufferView":2,"byteOffset":9140,"componentType":5123,"count":6,"type":"SCALAR"},{"bufferView":2,"byteOffset":9152,"componentType":5123,"count":12,"type":"SCALAR"},{"bufferView":2,"byteOffset":9176,"componentType":5123,"count":24,"type":"SCALAR"},{"bufferView":2,"byteOffset":9224,"componentType":5123,"count":24,"type":"SCALAR"},{"bufferView":2,"byteOffset":9272,"componentType":5123,"count":6,"type":"SCALAR"},{"bufferView":2,"byteOffset":9284,"componentType":5123,"count":12,"type":"SCALAR"},{"bufferView":2,"byteOffset":9308,"componentType":5123,"count":12,"type":"SCALAR"},{"bufferView":2,"byteOffset":9332,"componentType":5123,"count":18,"type":"SCALAR"},{"bufferView":2,"byteOffset":9368,"componentType":5123,"count":18,"type":"SCALAR"},{"bufferView":2,"byteOffset":9404,"componentType":5123,"count":12,"type":"SCALAR"},{"bufferView":2,"byteOffset":9428,"componentType":5123,"count":6,"type":"SCALAR"},{"bufferView":2,"byteOffset":9440,"componentType":5123,"count":12,"type":"SCALAR"},{"bufferView":2,"byteOffset":9464,"componentType":5123,"count":24,"type":"SCALAR"},{"bufferView":2,"byteOffset":9512,"componentType":5123,"count":24,"type":"SCALAR"},{"bufferView":2,"byteOffset":9560,"componentType":5123,"count":72,"type":"SCALAR"},{"bufferView":2,"byteOffset":9704,"componentType":5123,"count":78,"type":"SCALAR"},{"bufferView":2,"byteOffset":9860,"componentType":5123,"count":78,"type":"SCALAR"},{"bufferView":2,"byteOffset":10016,"componentType":5123,"count":78,"type":"SCALAR"},{"bufferView":2,"byteOffset":10172,"componentType":5123,"count":87,"type":"SCALAR"},{"bufferView":2,"byteOffset":10348,"componentType":5123,"count":87,"type":"SCALAR"},{"bufferView":2,"byteOffset":10524,"componentType":5123,"count":9,"type":"SCALAR"},{"bufferView":2,"byteOffset":10544,"componentType":5123,"count":9,"type":"SCALAR"},{"bufferView":2,"byteOffset":10564,"componentType":5123,"count":6,"type":"SCALAR"},{"bufferView":2,"byteOffset":10576,"componentType":5123,"count":21,"type":"SCALAR"},{"bufferView":2,"byteOffset":10620,"componentType":5123,"count":75,"type":"SCALAR"},{"bufferView":2,"byteOffset":10772,"componentType":5123,"count":6,"type":"SCALAR"},{"bufferView":2,"byteOffset":10784,"componentType":5123,"count":78,"type":"SCALAR"},{"bufferView":2,"byteOffset":10940,"componentType":5123,"count":72,"type":"SCALAR"}],"asset":{"generator":"Open CASCADE Technology 7.8 [dev.opencascade.org]","version":"2.0"},"bufferViews":[{"buffer":0,"byteLength":20976,"byteOffset":0,"byteStride":12,"target":34962},{"buffer":0,"byteLength":20976,"byteOffset":20976,"byteStride":12,"target":34962},{"buffer":0,"byteLength":11084,"byteOffset":41952,"target":34963}],"buffers":[{"byteLength":53036,"uri":"1.6L_Buchi_Polyclave_assembled.bin"}],"materials":[{"name":"mat_0","pbrMetallicRoughness":{"baseColorFactor":[0.41788509488105774,0.4620770215988159,0.5088813304901123,0.5],"metallicFactor":0.0},"doubleSided":true,"alphaMode":"BLEND"},{"name":"mat_1","pbrMetallicRoughness":{"baseColorFactor":[0.0,0.0,0.0,1.0]},"doubleSided":true}],"meshes":[{"name":"Takeda_Buchi_Tank","primitives":[{"attributes":{"NORMAL":91,"POSITION":0},"indices":182,"material":0,"mode":4},{"attributes":{"NORMAL":92,"POSITION":1},"indices":183,"material":0,"mode":4},{"attributes":{"NORMAL":93,"POSITION":2},"indices":184,"material":0,"mode":4},{"attributes":{"NORMAL":94,"POSITION":3},"indices":185,"material":0,"mode":4},{"attributes":{"NORMAL":95,"POSITION":4},"indices":186,"material":0,"mode":4}]},{"name":"Takeda_Buchi_Probe2","primitives":[{"attributes":{"NORMAL":96,"POSITION":5},"indices":187,"material":1,"mode":4},{"attributes":{"NORMAL":97,"POSITION":6},"indices":188,"material":1,"mode":4},{"attributes":{"NORMAL":98,"POSITION":7},"indices":189,"material":1,"mode":4},{"attributes":{"NORMAL":99,"POSITION":8},"indices":190,"material":1,"mode":4},{"attributes":{"NORMAL":100,"POSITION":9},"indices":191,"material":1,"mode":4},{"attributes":{"NORMAL":101,"POSITION":10},"indices":192,"material":1,"mode":4}]},{"name":"Takeda_Buchi_Probe1","primitives":[{"attributes":{"NORMAL":102,"POSITION":11},"indices":193,"material":1,"mode":4},{"attributes":{"NORMAL":103,"POSITION":12},"indices":194,"material":1,"mode":4},{"attributes":{"NORMAL":104,"POSITION":13},"indices":195,"material":1,"mode":4},{"attributes":{"NORMAL":105,"POSITION":14},"indices":196,"material":1,"mode":4},{"attributes":{"NORMAL":106,"POSITION":15},"indices":197,"material":1,"mode":4},{"attributes":{"NORMAL":107,"POSITION":16},"indices":198,"material":1,"mode":4}]},{"name":"Takeda_Buchi_Imp","primitives":[{"attributes":{"NORMAL":108,"POSITION":17},"indices":199,"material":1,"mode":4},{"attributes":{"NORMAL":109,"POSITION":18},"indices":200,"material":1,"mode":4},{"attributes":{"NORMAL":110,"POSITION":19},"indices":201,"material":1,"mode":4},{"attributes":{"NORMAL":111,"POSITION":20},"indices":202,"material":1,"mode":4},{"attributes":{"NORMAL":112,"POSITION":21},"indices":203,"material":1,"mode":4},{"attributes":{"NORMAL":113,"POSITION":22},"indices":204,"material":1,"mode":4},{"attributes":{"NORMAL":114,"POSITION":23},"indices":205,"material":1,"mode":4},{"attributes":{"NORMAL":115,"POSITION":24},"indices":206,"material":1,"mode":4},{"attributes":{"NORMAL":116,"POSITION":25},"indices":207,"material":1,"mode":4},{"attributes":{"NORMAL":117,"POSITION":26},"indices":208,"material":1,"mode":4},{"attributes":{"NORMAL":118,"POSITION":27},"indices":209,"material":1,"mode":4},{"attributes":{"NORMAL":119,"POSITION":28},"indices":210,"material":1,"mode":4},{"attributes":{"NORMAL":120,"POSITION":29},"indices":211,"material":1,"mode":4},{"attributes":{"NORMAL":121,"POSITION":30},"indices":212,"material":1,"mode":4},{"attributes":{"NORMAL":122,"POSITION":31},"indices":213,"material":1,"mode":4},{"attributes":{"NORMAL":123,"POSITION":32},"indices":214,"material":1,"mode":4},{"attributes":{"NORMAL":124,"POSITION":33},"indices":215,"material":1,"mode":4},{"attributes":{"NORMAL":125,"POSITION":34},"indices":216,"material":1,"mode":4},{"attributes":{"NORMAL":126,"POSITION":35},"indices":217,"material":1,"mode":4},{"attributes":{"NORMAL":127,"POSITION":36},"indices":218,"material":1,"mode":4},{"attributes":{"NORMAL":128,"POSITION":37},"indices":219,"material":1,"mode":4},{"attributes":{"NORMAL":129,"POSITION":38},"indices":220,"material":1,"mode":4},{"attributes":{"NORMAL":130,"POSITION":39},"indices":221,"material":1,"mode":4},{"attributes":{"NORMAL":131,"POSITION":40},"indices":222,"material":1,"mode":4},{"attributes":{"NORMAL":132,"POSITION":41},"indices":223,"material":1,"mode":4},{"attributes":{"NORMAL":133,"POSITION":42},"indices":224,"material":1,"mode":4},{"attributes":{"NORMAL":134,"POSITION":43},"indices":225,"material":1,"mode":4},{"attributes":{"NORMAL":135,"POSITION":44},"indices":226,"material":1,"mode":4},{"attributes":{"NORMAL":136,"POSITION":45},"indices":227,"material":1,"mode":4},{"attributes":{"NORMAL":137,"POSITION":46},"indices":228,"material":1,"mode":4},{"attributes":{"NORMAL":138,"POSITION":47},"indices":229,"material":1,"mode":4},{"attributes":{"NORMAL":139,"POSITION":48},"indices":230,"material":1,"mode":4},{"attributes":{"NORMAL":140,"POSITION":49},"indices":231,"material":1,"mode":4},{"attributes":{"NORMAL":141,"POSITION":50},"indices":232,"material":1,"mode":4},{"attributes":{"NORMAL":142,"POSITION":51},"indices":233,"material":1,"mode":4},{"attributes":{"NORMAL":143,"POSITION":52},"indices":234,"material":1,"mode":4},{"attributes":{"NORMAL":144,"POSITION":53},"indices":235,"material":1,"mode":4},{"attributes":{"NORMAL":145,"POSITION":54},"indices":236,"material":1,"mode":4},{"attributes":{"NORMAL":146,"POSITION":55},"indices":237,"material":1,"mode":4},{"attributes":{"NORMAL":147,"POSITION":56},"indices":238,"material":1,"mode":4},{"attributes":{"NORMAL":148,"POSITION":57},"indices":239,"material":1,"mode":4},{"attributes":{"NORMAL":149,"POSITION":58},"indices":240,"material":1,"mode":4},{"attributes":{"NORMAL":150,"POSITION":59},"indices":241,"material":1,"mode":4},{"attributes":{"NORMAL":151,"POSITION":60},"indices":242,"material":1,"mode":4},{"attributes":{"NORMAL":152,"POSITION":61},"indices":243,"material":1,"mode":4},{"attributes":{"NORMAL":153,"POSITION":62},"indices":244,"material":1,"mode":4},{"attributes":{"NORMAL":154,"POSITION":63},"indices":245,"material":1,"mode":4},{"attributes":{"NORMAL":155,"POSITION":64},"indices":246,"material":1,"mode":4},{"attributes":{"NORMAL":156,"POSITION":65},"indices":247,"material":1,"mode":4},{"attributes":{"NORMAL":157,"POSITION":66},"indices":248,"material":1,"mode":4},{"attributes":{"NORMAL":158,"POSITION":67},"indices":249,"material":1,"mode":4},{"attributes":{"NORMAL":159,"POSITION":68},"indices":250,"material":1,"mode":4},{"attributes":{"NORMAL":160,"POSITION":69},"indices":251,"material":1,"mode":4},{"attributes":{"NORMAL":161,"POSITION":70},"indices":252,"material":1,"mode":4},{"attributes":{"NORMAL":162,"POSITION":71},"indices":253,"material":1,"mode":4},{"attributes":{"NORMAL":163,"POSITION":72},"indices":254,"material":1,"mode":4},{"attributes":{"NORMAL":164,"POSITION":73},"indices":255,"material":1,"mode":4},{"attributes":{"NORMAL":165,"POSITION":74},"indices":256,"material":1,"mode":4},{"attributes":{"NORMAL":166,"POSITION":75},"indices":257,"material":1,"mode":4},{"attributes":{"NORMAL":167,"POSITION":76},"indices":258,"material":1,"mode":4},{"attributes":{"NORMAL":168,"POSITION":77},"indices":259,"material":1,"mode":4},{"attributes":{"NORMAL":169,"POSITION":78},"indices":260,"material":1,"mode":4},{"attributes":{"NORMAL":170,"POSITION":79},"indices":261,"material":1,"mode":4}]},{"name":"Takeda_Buchi_Baffle","primitives":[{"attributes":{"NORMAL":171,"POSITION":80},"indices":262,"material":1,"mode":4},{"attributes":{"NORMAL":172,"POSITION":81},"indices":263,"material":1,"mode":4},{"attributes":{"NORMAL":173,"POSITION":82},"indices":264,"material":1,"mode":4},{"attributes":{"NORMAL":174,"POSITION":83},"indices":265,"material":1,"mode":4},{"attributes":{"NORMAL":175,"POSITION":84},"indices":266,"material":1,"mode":4},{"attributes":{"NORMAL":176,"POSITION":85},"indices":267,"material":1,"mode":4},{"attributes":{"NORMAL":177,"POSITION":86},"indices":268,"material":1,"mode":4},{"attributes":{"NORMAL":178,"POSITION":87},"indices":269,"material":1,"mode":4},{"attributes":{"NORMAL":179,"POSITION":88},"indices":270,"material":1,"mode":4},{"attributes":{"NORMAL":180,"POSITION":89},"indices":271,"material":1,"mode":4},{"attributes":{"NORMAL":181,"POSITION":90},"indices":272,"material":1,"mode":4}]}],"nodes":[{"children":[1,2,3,4,5],"name":"_1_6L_Buchi_Polyclave_assembled"},{"mesh":0,"name":"Takeda_Buchi_Tank"},{"mesh":1,"name":"Takeda_Buchi_Probe2"},{"mesh":2,"name":"Takeda_Buchi_Probe1"},{"mesh":3,"name":"Takeda_Buchi_Imp"},{"mesh":4,"name":"Takeda_Buchi_Baffle"}],"scene":0,"scenes":[{"nodes":[0]}]}